<svg width="657.9px" height="122px" xmlns="http://www.w3.org/2000/svg" viewBox="-78.94687499999998 14 657.89375 122" style="background: rgba(0, 0, 0, 0)" preserveAspectRatio="xMidYMid"><defs><linearGradient id="editing-gradient-gradient" x1="0" x2="1" y1="0.5" y2="0.5" gradientUnits="objectBoundingBox"><stop offset="0" stop-color="#1f60c7"></stop><stop offset="1" stop-color="#ff4500"></stop></linearGradient></defs><g><g transform="matrix(1.3,0,0,1.4,-36.7,161.3)"><path d="M 3 -43.8 L -10.9 -43.8 L -2.8 -86 L 11.3 -86 L 3 -43.8 Z M 58.8 -42.5 L 58.8 -42.5 L 58.8 -42.5 Q 51 -42.5 51 -48.5 L 51 -48.5 L 51 -48.5 Q 51 -51.2 52.2 -56.2 L 52.2 -56.2 L 52.2 -56.2 Q 53.3 -61.3 53.7 -63.4 L 53.7 -63.4 L 53.7 -63.4 Q 54.6 -68.1 54.6 -69.5 L 54.6 -69.5 L 54.6 -69.5 Q 54.6 -72.8 52.1 -72.8 L 52.1 -72.8 L 52.1 -72.8 Q 50.5 -72.8 49 -70.6 L 49 -70.6 L 49 -70.6 Q 47.5 -68.4 46.7 -64 L 46.7 -64 L 42.8 -43.8 L 30.3 -42.5 L 33.8 -59.9 L 33.8 -59.9 Q 34.3 -62.8 34.8 -66.1 L 34.8 -66.1 L 34.8 -66.1 Q 35.4 -69.3 35.4 -69.9 L 35.4 -69.9 L 35.4 -69.9 Q 35.4 -72.8 33.2 -72.8 L 33.2 -72.8 L 33.2 -72.8 Q 31.7 -72.8 30.1 -70.6 L 30.1 -70.6 L 30.1 -70.6 Q 28.5 -68.4 27.6 -64 L 27.6 -64 L 23.7 -43.8 L 11.1 -42.5 L 17.8 -76.4 L 28.2 -77.7 L 27.2 -71.3 L 27.2 -71.3 Q 28.8 -74.7 31.9 -76.2 L 31.9 -76.2 L 31.9 -76.2 Q 35 -77.7 39.8 -77.7 L 39.8 -77.7 L 39.8 -77.7 Q 42.5 -77.7 44.3 -76.4 L 44.3 -76.4 L 44.3 -76.4 Q 46.1 -75 46.7 -72.9 L 46.7 -72.9 L 46.7 -72.9 Q 47.8 -75.1 50.6 -76.4 L 50.6 -76.4 L 50.6 -76.4 Q 53.3 -77.7 56.8 -77.7 L 56.8 -77.7 L 56.8 -77.7 Q 60.2 -77.7 61.9 -77 L 61.9 -77 L 61.9 -77 Q 63.6 -76.3 64.6 -75 L 64.6 -75 L 64.6 -75 Q 66.3 -72.8 66.3 -68.7 L 66.3 -68.7 L 66.3 -68.7 Q 66.3 -64.7 64.6 -56.3 L 64.6 -56.3 L 64.6 -56.3 Q 63.7 -52.2 63.7 -50.7 L 63.7 -50.7 L 63.7 -50.7 Q 63.7 -49.2 64.6 -48.3 L 64.6 -48.3 L 64.6 -48.3 Q 65.4 -47.4 66.7 -47.3 L 66.7 -47.3 L 66.7 -47.3 Q 66.1 -45.1 63.9 -43.8 L 63.9 -43.8 L 63.9 -43.8 Q 61.7 -42.5 58.8 -42.5 Z M 74.4 -45.7 L 74.4 -45.7 L 74.4 -45.7 Q 72.9 -47.4 72.2 -50 L 72.2 -50 L 72.2 -50 Q 71.6 -52.6 71.6 -56.9 L 71.6 -56.9 L 71.6 -56.9 Q 71.6 -61.2 73 -65.1 L 73 -65.1 L 73 -65.1 Q 74.5 -69 77.2 -71.8 L 77.2 -71.8 L 77.2 -71.8 Q 82.7 -77.7 91.8 -77.7 L 91.8 -77.7 L 91.8 -77.7 Q 95.1 -77.7 97.4 -76.6 L 97.4 -76.6 L 108.4 -77.7 L 103.6 -52.8 L 103.6 -52.8 Q 103.5 -52 103.5 -50.6 L 103.5 -50.6 L 103.5 -50.6 Q 103.5 -49.2 104.3 -48.3 L 104.3 -48.3 L 104.3 -48.3 Q 105.2 -47.4 106.5 -47.3 L 106.5 -47.3 L 106.5 -47.3 Q 105.8 -45.1 103.5 -43.8 L 103.5 -43.8 L 103.5 -43.8 Q 101.2 -42.5 98.5 -42.5 L 98.5 -42.5 L 98.5 -42.5 Q 95.9 -42.5 94.1 -43.5 L 94.1 -43.5 L 94.1 -43.5 Q 92.4 -44.5 91.9 -46.2 L 91.9 -46.2 L 91.9 -46.2 Q 90.8 -44.6 88.7 -43.5 L 88.7 -43.5 L 88.7 -43.5 Q 86.5 -42.5 83.6 -42.5 L 83.6 -42.5 L 83.6 -42.5 Q 80.7 -42.5 78.3 -43.3 L 78.3 -43.3 L 78.3 -43.3 Q 75.9 -44.1 74.4 -45.7 Z M 87.9 -71.7 L 87.9 -71.7 L 87.9 -71.7 Q 87.2 -70.6 86.6 -68.6 L 86.6 -68.6 L 86.6 -68.6 Q 85.9 -66.7 84.9 -61.4 L 84.9 -61.4 L 84.9 -61.4 Q 83.8 -56.2 83.8 -52.5 L 83.8 -52.5 L 83.8 -52.5 Q 83.8 -48.8 84.4 -47.7 L 84.4 -47.7 L 84.4 -47.7 Q 85 -46.6 86 -46.6 L 86 -46.6 L 86 -46.6 Q 88 -46.6 89.5 -48.6 L 89.5 -48.6 L 89.5 -48.6 Q 91 -50.5 91.6 -54 L 91.6 -54 L 95 -72.7 L 95 -72.7 Q 93.7 -73.9 92.1 -73.9 L 92.1 -73.9 L 92.1 -73.9 Q 90.5 -73.9 89.6 -73.4 L 89.6 -73.4 L 89.6 -73.4 Q 88.7 -72.9 87.9 -71.7 Z M 116.1 -70.6 L 116.1 -70.6 L 116.1 -70.6 Q 118.3 -73.6 121.6 -75.7 L 121.6 -75.7 L 121.6 -75.7 Q 124.9 -77.7 128.9 -77.7 L 128.9 -77.7 L 128.9 -77.7 Q 133 -77.7 134.9 -76.4 L 134.9 -76.4 L 147.4 -77.7 L 143.1 -53.1 L 143.1 -53.1 Q 140.8 -40.6 136.1 -35.7 L 136.1 -35.7 L 136.1 -35.7 Q 131.5 -31 122.7 -31 L 122.7 -31 L 122.7 -31 Q 116 -31 112.2 -33.1 L 112.2 -33.1 L 112.2 -33.1 Q 108.3 -35.2 108.3 -38.7 L 108.3 -38.7 L 108.3 -38.7 Q 108.3 -41.4 110.3 -42.9 L 110.3 -42.9 L 110.3 -42.9 Q 112.3 -44.4 115.4 -44.4 L 115.4 -44.4 L 115.4 -44.4 Q 118 -44.4 120.1 -43.2 L 120.1 -43.2 L 120.1 -43.2 Q 121.3 -42.5 121.9 -41.6 L 121.9 -41.6 L 121.9 -41.6 Q 120.4 -40.3 120.4 -38.2 L 120.4 -38.2 L 120.4 -38.2 Q 120.4 -35.5 123 -35.5 L 123 -35.5 L 123 -35.5 Q 127.3 -35.5 129.7 -45.6 L 129.7 -45.6 L 129.7 -45.6 Q 130.4 -48.3 131 -51.1 L 131 -51.1 L 131 -51.1 Q 128.1 -47.6 121.6 -47.6 L 121.6 -47.6 L 121.6 -47.6 Q 117 -47.6 114.4 -49.8 L 114.4 -49.8 L 114.4 -49.8 Q 111.8 -51.9 111.8 -57.1 L 111.8 -57.1 L 111.8 -57.1 Q 111.8 -60.2 112.9 -63.9 L 112.9 -63.9 L 112.9 -63.9 Q 114 -67.5 116.1 -70.6 Z M 124.4 -56.9 L 124.4 -56.9 L 124.4 -56.9 Q 124.4 -52.5 126.7 -52.5 L 126.7 -52.5 L 126.7 -52.5 Q 128.2 -52.5 129.7 -54.2 L 129.7 -54.2 L 129.7 -54.2 Q 130.8 -55.5 131.3 -57.5 L 131.3 -57.5 L 134.6 -73.9 L 134.6 -73.9 Q 134.2 -74 133.9 -74.1 L 133.9 -74.1 L 133.9 -74.1 Q 133.3 -74.4 132.4 -74.4 L 132.4 -74.4 L 132.4 -74.4 Q 128.5 -74.4 126.2 -68 L 126.2 -68 L 126.2 -68 Q 124.4 -63 124.4 -56.9 Z M 175.8 -54.6 L 175.8 -54.6 L 175.8 -54.6 Q 177.4 -53.5 177.4 -51.1 L 177.4 -51.1 L 177.4 -51.1 Q 177.4 -48.7 176.2 -47.2 L 176.2 -47.2 L 176.2 -47.2 Q 175 -45.7 173 -44.6 L 173 -44.6 L 173 -44.6 Q 168.9 -42.5 164.5 -42.5 L 164.5 -42.5 L 164.5 -42.5 Q 160.1 -42.5 157.5 -43.5 L 157.5 -43.5 L 157.5 -43.5 Q 154.9 -44.4 153.2 -46.2 L 153.2 -46.2 L 153.2 -46.2 Q 149.8 -49.6 149.8 -55.8 L 149.8 -55.8 L 149.8 -55.8 Q 149.8 -65.5 155 -71.4 L 155 -71.4 L 155 -71.4 Q 160.7 -77.7 170.5 -77.7 L 170.5 -77.7 L 170.5 -77.7 Q 176.5 -77.7 179.5 -75.2 L 179.5 -75.2 L 179.5 -75.2 Q 181.8 -73.2 181.8 -70.1 L 181.8 -70.1 L 181.8 -70.1 Q 181.8 -58.8 162.3 -58.8 L 162.3 -58.8 L 162.3 -58.8 Q 162.1 -57.2 162.1 -55.8 L 162.1 -55.8 L 162.1 -55.8 Q 162.1 -52.8 163.4 -51.7 L 163.4 -51.7 L 163.4 -51.7 Q 164.7 -50.6 167.1 -50.6 L 167.1 -50.6 L 167.1 -50.6 Q 169.6 -50.6 172.2 -51.7 L 172.2 -51.7 L 172.2 -51.7 Q 174.8 -52.8 175.8 -54.6 Z M 162.8 -61.6 L 162.8 -61.6 L 162.8 -61.6 Q 167.3 -61.6 170 -64.4 L 170 -64.4 L 170 -64.4 Q 172.6 -67.1 172.6 -71.4 L 172.6 -71.4 L 172.6 -71.4 Q 172.6 -72.9 172 -73.7 L 172 -73.7 L 172 -73.7 Q 171.5 -74.5 170.4 -74.5 L 170.4 -74.5 L 170.4 -74.5 Q 169.3 -74.5 168.4 -74 L 168.4 -74 L 168.4 -74 Q 167.5 -73.6 166.5 -72.2 L 166.5 -72.2 L 166.5 -72.2 Q 164.1 -69 162.8 -61.6 Z M 203.1 -66.3 L 203.1 -66.3 L 203.1 -66.3 Q 204 -68.6 204 -70.7 L 204 -70.7 L 204 -70.7 Q 204 -74.5 200.9 -74.5 L 200.9 -74.5 L 200.9 -74.5 Q 199.3 -74.5 198 -73 L 198 -73 L 198 -73 Q 196.7 -71.6 196.7 -69.8 L 196.7 -69.8 L 196.7 -69.8 Q 196.7 -68.5 197.7 -67.5 L 197.7 -67.5 L 197.7 -67.5 Q 199.2 -66.1 203 -63.8 L 203 -63.8 L 203 -63.8 Q 206.8 -61.5 208.2 -59.6 L 208.2 -59.6 L 208.2 -59.6 Q 209.6 -57.7 209.6 -55.1 L 209.6 -55.1 L 209.6 -55.1 Q 209.6 -52.5 208.4 -50.1 L 208.4 -50.1 L 208.4 -50.1 Q 207.1 -47.8 204.9 -46.1 L 204.9 -46.1 L 204.9 -46.1 Q 200.1 -42.5 192.4 -42.5 L 192.4 -42.5 L 192.4 -42.5 Q 188.3 -42.5 185 -44.7 L 185 -44.7 L 185 -44.7 Q 181.9 -46.8 181.9 -49.3 L 181.9 -49.3 L 181.9 -49.3 Q 181.9 -51.8 183.7 -53.3 L 183.7 -53.3 L 183.7 -53.3 Q 185.5 -54.7 188.2 -54.7 L 188.2 -54.7 L 188.2 -54.7 Q 190.9 -54.7 192.5 -53.7 L 192.5 -53.7 L 192.5 -53.7 Q 191.7 -51.6 191.7 -50.2 L 191.7 -50.2 L 191.7 -50.2 Q 191.7 -46 195.3 -46 L 195.3 -46 L 195.3 -46 Q 196.8 -46 197.9 -46.9 L 197.9 -46.9 L 197.9 -46.9 Q 198.9 -47.9 198.9 -49.6 L 198.9 -49.6 L 198.9 -49.6 Q 198.9 -52.8 193.4 -56.3 L 193.4 -56.3 L 193.4 -56.3 Q 188.9 -59.2 187.9 -60.4 L 187.9 -60.4 L 187.9 -60.4 Q 186.1 -62.4 186.1 -65 L 186.1 -65 L 186.1 -65 Q 186.1 -67.5 187.4 -70 L 187.4 -70 L 187.4 -70 Q 188.6 -72.4 190.8 -74.1 L 190.8 -74.1 L 190.8 -74.1 Q 195.5 -77.7 203.6 -77.7 L 203.6 -77.7 L 203.6 -77.7 Q 207.8 -77.7 210.2 -76.1 L 210.2 -76.1 L 210.2 -76.1 Q 212.7 -74.4 212.7 -71.6 L 212.7 -71.6 L 212.7 -71.6 Q 212.7 -68.8 211 -67.2 L 211 -67.2 L 211 -67.2 Q 209.3 -65.6 206.2 -65.6 L 206.2 -65.6 L 206.2 -65.6 Q 204.1 -65.6 203.1 -66.3 Z M 254.2 -64.4 L 267.1 -65.6 L 267.1 -65.6 Q 262.5 -55.5 262.5 -43.7 L 262.5 -43.7 L 262.5 -43.7 Q 260.8 -42.5 258.2 -42.5 L 258.2 -42.5 L 258.2 -42.5 Q 255.7 -42.5 254.1 -43.7 L 254.1 -43.7 L 254.1 -43.7 Q 252.5 -44.9 252.2 -46.1 L 252.2 -46.1 L 252.2 -46.1 Q 250.6 -44.4 248 -43.5 L 248 -43.5 L 248 -43.5 Q 245.4 -42.5 242.6 -42.5 L 242.6 -42.5 L 242.6 -42.5 Q 239.9 -42.5 237.5 -43.4 L 237.5 -43.4 L 237.5 -43.4 Q 235.1 -44.3 233.2 -46.3 L 233.2 -46.3 L 233.2 -46.3 Q 229.1 -50.6 229.1 -58.9 L 229.1 -58.9 L 229.1 -58.9 Q 229.1 -71.7 236 -79.4 L 236 -79.4 L 236 -79.4 Q 243 -87.3 255.5 -87.3 L 255.5 -87.3 L 255.5 -87.3 Q 264.2 -87.3 267.2 -82.8 L 267.2 -82.8 L 267.2 -82.8 Q 268.2 -81.4 268.2 -79.7 L 268.2 -79.7 L 268.2 -79.7 Q 268.2 -78 267.5 -76.6 L 267.5 -76.6 L 267.5 -76.6 Q 266.7 -75.2 265.6 -74 L 265.6 -74 L 265.6 -74 Q 262.8 -71.4 259.4 -71.4 L 259.4 -71.4 L 259.4 -71.4 Q 258.1 -71.4 256.8 -71.9 L 256.8 -71.9 L 256.8 -71.9 Q 257.1 -73.8 257.1 -76.1 L 257.1 -76.1 L 257.1 -76.1 Q 257.1 -78.3 256.9 -79.3 L 256.9 -79.3 L 256.9 -79.3 Q 256.7 -80.3 256.3 -81.2 L 256.3 -81.2 L 256.3 -81.2 Q 255.5 -82.9 253.7 -82.9 L 253.7 -82.9 L 253.7 -82.9 Q 251.9 -82.9 249.8 -80.9 L 249.8 -80.9 L 249.8 -80.9 Q 247.8 -79 246.2 -75.8 L 246.2 -75.8 L 246.2 -75.8 Q 242.7 -68.6 242.7 -60 L 242.7 -60 L 242.7 -60 Q 242.7 -56 244.3 -53.2 L 244.3 -53.2 L 244.3 -53.2 Q 245.9 -50.1 248.9 -50.1 L 248.9 -50.1 L 248.9 -50.1 Q 249.9 -50.1 250.8 -50.6 L 250.8 -50.6 L 250.8 -50.6 Q 251.7 -51.2 252.1 -51.5 L 252.1 -51.5 L 254.2 -64.4 Z M 273 -45.7 L 273 -45.7 L 273 -45.7 Q 271.5 -47.4 270.8 -50 L 270.8 -50 L 270.8 -50 Q 270.2 -52.6 270.2 -56.9 L 270.2 -56.9 L 270.2 -56.9 Q 270.2 -61.2 271.6 -65.1 L 271.6 -65.1 L 271.6 -65.1 Q 273.1 -69 275.8 -71.8 L 275.8 -71.8 L 275.8 -71.8 Q 281.3 -77.7 290.4 -77.7 L 290.4 -77.7 L 290.4 -77.7 Q 293.7 -77.7 296 -76.6 L 296 -76.6 L 307 -77.7 L 302.2 -52.8 L 302.2 -52.8 Q 302 -52 302 -50.6 L 302 -50.6 L 302 -50.6 Q 302 -49.2 302.9 -48.3 L 302.9 -48.3 L 302.9 -48.3 Q 303.8 -47.4 305.1 -47.3 L 305.1 -47.3 L 305.1 -47.3 Q 304.4 -45.1 302.1 -43.8 L 302.1 -43.8 L 302.1 -43.8 Q 299.7 -42.5 297.1 -42.5 L 297.1 -42.5 L 297.1 -42.5 Q 294.5 -42.5 292.7 -43.5 L 292.7 -43.5 L 292.7 -43.5 Q 291 -44.5 290.5 -46.2 L 290.5 -46.2 L 290.5 -46.2 Q 289.4 -44.6 287.3 -43.5 L 287.3 -43.5 L 287.3 -43.5 Q 285.1 -42.5 282.2 -42.5 L 282.2 -42.5 L 282.2 -42.5 Q 279.3 -42.5 276.9 -43.3 L 276.9 -43.3 L 276.9 -43.3 Q 274.5 -44.1 273 -45.7 Z M 286.5 -71.7 L 286.5 -71.7 L 286.5 -71.7 Q 285.8 -70.6 285.1 -68.6 L 285.1 -68.6 L 285.1 -68.6 Q 284.5 -66.7 283.5 -61.4 L 283.5 -61.4 L 283.5 -61.4 Q 282.4 -56.2 282.4 -52.5 L 282.4 -52.5 L 282.4 -52.5 Q 282.4 -48.8 283 -47.7 L 283 -47.7 L 283 -47.7 Q 283.6 -46.6 284.6 -46.6 L 284.6 -46.6 L 284.6 -46.6 Q 286.6 -46.6 288.1 -48.6 L 288.1 -48.6 L 288.1 -48.6 Q 289.6 -50.5 290.2 -54 L 290.2 -54 L 293.6 -72.7 L 293.6 -72.7 Q 292.3 -73.9 290.7 -73.9 L 290.7 -73.9 L 290.7 -73.9 Q 289.1 -73.9 288.2 -73.4 L 288.2 -73.4 L 288.2 -73.4 Q 287.3 -72.9 286.5 -71.7 Z M 325.7 -47.3 L 325.7 -47.3 L 325.7 -47.3 Q 323.7 -42.5 317.4 -42.5 L 317.4 -42.5 L 317.4 -42.5 Q 314.2 -42.5 312.2 -44.8 L 312.2 -44.8 L 312.2 -44.8 Q 310.5 -46.6 310.5 -48.7 L 310.5 -48.7 L 310.5 -48.7 Q 310.5 -53.5 312.7 -64 L 312.7 -64 L 317.4 -88.6 L 330.4 -89.9 L 324.2 -57.5 L 324.2 -57.5 Q 323.1 -52.8 323.1 -51.1 L 323.1 -51.1 L 323.1 -51.1 Q 323.1 -47.4 325.7 -47.3 Z M 346.5 -47.3 L 346.5 -47.3 L 346.5 -47.3 Q 344.5 -42.5 338.1 -42.5 L 338.1 -42.5 L 338.1 -42.5 Q 334.9 -42.5 332.9 -44.8 L 332.9 -44.8 L 332.9 -44.8 Q 331.2 -46.6 331.2 -48.7 L 331.2 -48.7 L 331.2 -48.7 Q 331.2 -53.5 333.5 -64 L 333.5 -64 L 338.1 -88.6 L 351.1 -89.9 L 344.9 -57.5 L 344.9 -57.5 Q 343.8 -52.8 343.8 -51.1 L 343.8 -51.1 L 343.8 -51.1 Q 343.8 -47.4 346.5 -47.3 Z M 377.8 -54.6 L 377.8 -54.6 L 377.8 -54.6 Q 379.4 -53.5 379.4 -51.1 L 379.4 -51.1 L 379.4 -51.1 Q 379.4 -48.7 378.2 -47.2 L 378.2 -47.2 L 378.2 -47.2 Q 377 -45.7 375 -44.6 L 375 -44.6 L 375 -44.6 Q 370.9 -42.5 366.5 -42.5 L 366.5 -42.5 L 366.5 -42.5 Q 362.1 -42.5 359.5 -43.5 L 359.5 -43.5 L 359.5 -43.5 Q 356.9 -44.4 355.2 -46.2 L 355.2 -46.2 L 355.2 -46.2 Q 351.8 -49.6 351.8 -55.8 L 351.8 -55.8 L 351.8 -55.8 Q 351.8 -65.5 357 -71.4 L 357 -71.4 L 357 -71.4 Q 362.6 -77.7 372.4 -77.7 L 372.4 -77.7 L 372.4 -77.7 Q 378.5 -77.7 381.5 -75.2 L 381.5 -75.2 L 381.5 -75.2 Q 383.8 -73.2 383.8 -70.1 L 383.8 -70.1 L 383.8 -70.1 Q 383.8 -58.8 364.3 -58.8 L 364.3 -58.8 L 364.3 -58.8 Q 364.1 -57.2 364.1 -55.8 L 364.1 -55.8 L 364.1 -55.8 Q 364.1 -52.8 365.4 -51.7 L 365.4 -51.7 L 365.4 -51.7 Q 366.7 -50.6 369.1 -50.6 L 369.1 -50.6 L 369.1 -50.6 Q 371.6 -50.6 374.1 -51.7 L 374.1 -51.7 L 374.1 -51.7 Q 376.7 -52.8 377.8 -54.6 Z M 364.8 -61.6 L 364.8 -61.6 L 364.8 -61.6 Q 369.3 -61.6 371.9 -64.4 L 371.9 -64.4 L 371.9 -64.4 Q 374.6 -67.1 374.6 -71.4 L 374.6 -71.4 L 374.6 -71.4 Q 374.6 -72.9 374 -73.7 L 374 -73.7 L 374 -73.7 Q 373.5 -74.5 372.4 -74.5 L 372.4 -74.5 L 372.4 -74.5 Q 371.3 -74.5 370.4 -74 L 370.4 -74 L 370.4 -74 Q 369.4 -73.6 368.5 -72.2 L 368.5 -72.2 L 368.5 -72.2 Q 366.1 -69 364.8 -61.6 Z M 406 -61.8 L 406 -61.8 L 406 -61.8 Q 408.3 -65.9 408.3 -70 L 408.3 -70 L 408.3 -70 Q 408.3 -72.8 406.3 -72.8 L 406.3 -72.8 L 406.3 -72.8 Q 404.8 -72.8 403.2 -70.2 L 403.2 -70.2 L 403.2 -70.2 Q 401.5 -67.5 401 -64.2 L 401 -64.2 L 397.7 -43.8 L 384.4 -42.5 L 390.9 -76.4 L 401.5 -77.7 L 400.3 -71.3 L 400.3 -71.3 Q 403.5 -77.7 410.5 -77.7 L 410.5 -77.7 L 410.5 -77.7 Q 414.2 -77.7 416.3 -75.8 L 416.3 -75.8 L 416.3 -75.8 Q 418.3 -73.9 418.3 -69.9 L 418.3 -69.9 L 418.3 -69.9 Q 418.3 -66 415.7 -63.5 L 415.7 -63.5 L 415.7 -63.5 Q 413.1 -61 408.7 -61 L 408.7 -61 L 408.7 -61 Q 406.8 -61 406 -61.8 Z M 439.6 -51 L 439.6 -51 L 439.6 -51 Q 436.3 -47.6 430.2 -47.6 L 430.2 -47.6 L 430.2 -47.6 Q 422.6 -47.6 421 -53.1 L 421 -53.1 L 421 -53.1 Q 420.5 -54.8 420.5 -56.7 L 420.5 -56.7 L 420.5 -56.7 Q 420.5 -58.5 420.9 -60.4 L 420.9 -60.4 L 423.9 -76.4 L 436.9 -77.7 L 433.4 -59.1 L 433.4 -59.1 Q 433.2 -58.3 433.1 -57.4 L 433.1 -57.4 L 433.1 -57.4 Q 432.9 -56.5 432.9 -55.5 L 432.9 -55.5 L 432.9 -55.5 Q 432.9 -54.6 433.2 -54 L 433.2 -54 L 433.2 -54 Q 433.5 -53.4 434 -53 L 434 -53 L 434 -53 Q 434.7 -52.5 436.1 -52.5 L 436.1 -52.5 L 436.1 -52.5 Q 437.5 -52.5 438.6 -54.2 L 438.6 -54.2 L 438.6 -54.2 Q 439.8 -55.8 440.4 -58.7 L 440.4 -58.7 L 443.9 -76.4 L 456.5 -77.7 L 451.7 -52.6 L 451.7 -52.6 Q 449.4 -40.3 444.5 -35.4 L 444.5 -35.4 L 444.5 -35.4 Q 442 -32.9 438.8 -31.9 L 438.8 -31.9 L 438.8 -31.9 Q 435.6 -30.9 431.4 -30.9 L 431.4 -30.9 L 431.4 -30.9 Q 424.7 -30.9 420.8 -33 L 420.8 -33 L 420.8 -33 Q 417 -35.2 417 -38.7 L 417 -38.7 L 417 -38.7 Q 417 -41.3 419 -42.8 L 419 -42.8 L 419 -42.8 Q 421 -44.3 424 -44.3 L 424 -44.3 L 424 -44.3 Q 426.7 -44.3 428.8 -43.2 L 428.8 -43.2 L 428.8 -43.2 Q 430 -42.5 430.6 -41.6 L 430.6 -41.6 L 430.6 -41.6 Q 429.1 -40.3 429.1 -38.2 L 429.1 -38.2 L 429.1 -38.2 Q 429.1 -35.4 431.6 -35.4 L 431.6 -35.4 L 431.6 -35.4 Q 435.9 -35.4 438.3 -45.1 L 438.3 -45.1 L 438.3 -45.1 Q 439 -48 439.6 -51 Z" fill="url(#editing-gradient-gradient)"></path></g></g><style>text {
  font-size: 64px;
  font-family: Arial Black;
  dominant-baseline: central;
  text-anchor: middle;
}</style></svg>